<?xml version="1.0" encoding="UTF-8"?>
<svg id="Capa_2" data-name="Capa 2" xmlns="http://www.w3.org/2000/svg" viewBox="0 0 134.57 143.82">
  <g id="Capa_1-2" data-name="Capa 1">
    <g>
      <path d="M133.57,77.91c-.14-.81-.29-1.65-.46-2.54-.05-.26-.1-.5-.15-.75C127.88,50.06,108.89,0,108.89,0l-37.29,38.13-4.34,4.44-4.51-4.44L24.1,0C2.3,62.12.84,78.68.84,78.68l.02-.02c-.58,3.75-.86,7.87-.86,12.32,0,8.09.93,15.01,2.81,20.79,1.87,5.78,4.34,10.61,7.4,14.52,3.05,3.89,6.56,7.01,10.51,9.32,3.94,2.31,8,4.1,12.13,5.33,4.15,1.23,8.23,2.02,12.22,2.37,3.99.34,7.57.51,10.73.51h22.95c3.15,0,6.74-.17,10.73-.51,4.01-.34,8.07-1.13,12.22-2.37,4.15-1.23,8.19-3.02,12.13-5.33,3.96-2.31,7.45-5.43,10.52-9.32,3.05-3.91,5.52-8.74,7.39-14.52,1.89-5.78,2.83-12.7,2.83-20.79,0-4.78-.34-9.12-.99-13.08ZM114.72,104.78c-1.37,4.25-3.19,7.8-5.43,10.68-2.26,2.86-4.83,5.16-7.75,6.87-2.9,1.7-5.88,3-8.93,3.91-3.05.91-6.05,1.49-9,1.75-2.93.26-5.57.38-7.9.38h-16.88c-2.33,0-4.95-.12-7.9-.38-2.93-.26-5.95-.84-9-1.75-3.03-.91-6.02-2.21-8.93-3.91-2.9-1.71-5.48-4.01-7.73-6.87-2.26-2.88-4.08-6.43-5.45-10.68-1.39-4.25-2.07-9.36-2.07-15.3,0-3.27.21-6.31.63-9.07.12-.72,3.96-22.96,17.1-45.9l28.47,28.05,3.31,3.27,3.19-3.27,27.45-28.05s13.97,24.83,17.7,42.91c.05.19.09.36.12.55.12.67.24,1.29.34,1.87.48,2.91.74,6.12.74,9.63,0,5.95-.7,11.05-2.09,15.3Z"/>
      <polygon points="57.65 98.31 76.92 98.31 67.28 109.83 57.65 98.31"/>
    </g>
  </g>
</svg>