<?xml version="1.0" encoding="UTF-8"?>
<svg id="Capa_2" data-name="Capa 2" xmlns="http://www.w3.org/2000/svg" viewBox="0 0 574.9 110.58">
  <g id="Capa_1-2" data-name="Capa 1">
    <g>
      <g>
        <path d="M224.7,20.45v19.12h-63.43v10.7h63.43v20.21h-63.43v27.12h-20.53V20.45h83.96Z"/>
        <path d="M319.46,78.48v19.12h-83.96V20.45h20.53v58.02h63.43Z"/>
        <path d="M381.27,20.45c2.3,0,4.92.13,7.83.38,2.92.25,5.89.83,8.92,1.73,3.03.9,5.98,2.2,8.86,3.89,2.88,1.69,5.44,3.96,7.67,6.81,2.23,2.85,4.03,6.38,5.4,10.59,1.37,4.21,2.05,9.28,2.05,15.18s-.69,10.97-2.05,15.18c-1.37,4.21-3.17,7.75-5.4,10.59-2.23,2.85-4.79,5.12-7.67,6.81-2.88,1.69-5.83,2.99-8.86,3.89-3.03.9-6,1.48-8.92,1.73-2.92.25-5.53.38-7.83.38h-16.75c-2.31,0-4.92-.12-7.83-.38-2.92-.25-5.89-.83-8.91-1.73-3.03-.9-5.98-2.2-8.86-3.89-2.88-1.69-5.44-3.96-7.67-6.81-2.23-2.84-4.04-6.38-5.4-10.59-1.37-4.21-2.05-9.27-2.05-15.18s.68-10.97,2.05-15.18c1.37-4.21,3.17-7.74,5.4-10.59,2.23-2.84,4.79-5.11,7.67-6.81,2.88-1.69,5.83-2.99,8.86-3.89,3.03-.9,6-1.48,8.91-1.73,2.92-.25,5.53-.38,7.83-.38h16.75ZM386.88,78.26c2.74,0,4.99-.54,6.75-1.62,1.76-1.08,3.15-2.52,4.16-4.32,1.01-1.8,1.71-3.85,2.11-6.16.4-2.3.59-4.68.59-7.13s-.2-4.83-.59-7.13c-.4-2.3-1.1-4.34-2.11-6.11-1.01-1.76-2.4-3.19-4.16-4.27-1.77-1.08-4.02-1.62-6.75-1.62h-27.99c-2.74,0-4.99.54-6.75,1.62-1.77,1.08-3.15,2.5-4.16,4.27-1.01,1.77-1.71,3.8-2.11,6.11-.4,2.31-.59,4.68-.59,7.13s.2,4.83.59,7.13c.39,2.31,1.1,4.36,2.11,6.16,1.01,1.8,2.39,3.24,4.16,4.32,1.76,1.08,4.01,1.62,6.75,1.62h27.99Z"/>
        <path d="M554.37,20.45h20.53v38.57c0,5.91-.69,10.97-2.05,15.18-1.37,4.21-3.19,7.75-5.46,10.59-2.27,2.85-4.83,5.12-7.67,6.81-2.85,1.69-5.78,2.99-8.81,3.89-3.03.9-6,1.48-8.91,1.73-2.92.25-5.53.38-7.83.38h-.97c-2.09,0-4.43-.11-7.02-.32-2.59-.22-5.24-.65-7.94-1.3-2.7-.65-5.39-1.62-8.05-2.92s-5.15-3.03-7.46-5.19c-2.23,2.16-4.7,3.89-7.4,5.19-2.7,1.3-5.4,2.27-8.1,2.92s-5.35,1.08-7.94,1.3c-2.59.22-4.93.32-7.02.32h-.86c-2.31,0-4.92-.12-7.83-.38-2.92-.25-5.89-.83-8.91-1.73-3.03-.9-5.98-2.2-8.86-3.89-2.88-1.69-5.44-3.96-7.67-6.81-2.23-2.84-4.04-6.38-5.4-10.59-1.37-4.21-2.05-9.27-2.05-15.18V20.45h20.42v39.66c0,2.45.2,4.77.59,6.97.4,2.2,1.1,4.12,2.11,5.78,1.01,1.66,2.39,2.97,4.16,3.94,1.76.97,4.01,1.46,6.75,1.46h14.26c2.74,0,4.99-.49,6.75-1.46,1.76-.97,3.15-2.29,4.16-3.94,1.01-1.66,1.71-3.58,2.11-5.78.4-2.2.59-4.52.59-6.97V20.45h20.42v39.66c0,2.45.2,4.77.59,6.97.39,2.2,1.1,4.12,2.11,5.78,1.01,1.66,2.38,2.97,4.11,3.94s3.96,1.46,6.7,1.46h14.37c2.74,0,4.97-.49,6.7-1.46,1.73-.97,3.1-2.29,4.11-3.94,1.01-1.66,1.71-3.58,2.11-5.78.4-2.2.59-4.52.59-6.97V20.45Z"/>
      </g>
      <g>
        <path d="M102.7,59.9c-.11-.62-.22-1.26-.36-1.95-.04-.2-.08-.38-.12-.58C98.33,38.49,83.73,0,83.73,0l-28.67,29.32-3.33,3.41-3.47-3.41L18.53,0C1.77,47.77.65,60.5.65,60.5h.01c-.45,2.87-.66,6.04-.66,9.46,0,6.22.71,11.54,2.16,15.98,1.44,4.44,3.33,8.16,5.69,11.16,2.35,2.99,5.05,5.39,8.08,7.17,3.03,1.78,6.15,3.15,9.33,4.1,3.19.95,6.33,1.55,9.4,1.82,3.07.26,5.82.4,8.25.4h17.64c2.42,0,5.18-.13,8.25-.4,3.08-.26,6.21-.87,9.4-1.82,3.19-.95,6.3-2.32,9.33-4.1,3.04-1.78,5.73-4.18,8.09-7.17,2.35-3,4.24-6.72,5.68-11.16,1.45-4.44,2.17-9.76,2.17-15.98,0-3.68-.26-7.01-.76-10.05ZM88.21,80.57c-1.05,3.27-2.45,6-4.18,8.21-1.74,2.2-3.72,3.97-5.96,5.28-2.23,1.3-4.52,2.31-6.87,3-2.35.7-4.65,1.15-6.92,1.34-2.25.2-4.28.29-6.07.29h-12.98c-1.79,0-3.81-.09-6.07-.29-2.25-.2-4.57-.65-6.92-1.34-2.33-.7-4.63-1.7-6.87-3-2.23-1.32-4.22-3.08-5.94-5.28-1.74-2.21-3.14-4.94-4.19-8.21-1.07-3.27-1.59-7.19-1.59-11.77,0-2.52.16-4.85.49-6.97.09-.55,3.04-17.66,13.15-35.29l21.89,21.57,2.54,2.52,2.45-2.52,21.11-21.57s10.74,19.09,13.61,33c.04.14.07.28.09.42.09.51.18.99.26,1.44.37,2.24.57,4.7.57,7.41,0,4.57-.54,8.5-1.61,11.77Z"/>
        <polygon points="44.33 75.59 59.14 75.59 51.73 84.45 44.33 75.59"/>
      </g>
    </g>
  </g>
</svg>